<?xml version="1.0" encoding="utf-8"?>
<!-- Generator: Adobe Illustrator 24.2.0, SVG Export Plug-In . SVG Version: 6.00 Build 0)  -->
<svg version="1.1" id="Layer_1" xmlns="http://www.w3.org/2000/svg" xmlns:xlink="http://www.w3.org/1999/xlink" x="0px" y="0px"
	 viewBox="0 0 802 557" style="enable-background:new 0 0 802 557;" xml:space="preserve">
<style type="text/css">
	.st0{opacity:0.35;enable-background:new    ;}
	.st1{opacity:0.35;}
	.st2{fill:#FFFFFF;}
	.st3{fill:#FFFDFD;}
</style>
<g>
	<g>
		<path d="M727.91,467.91c2.4,0,4.85-0.54,7.14-1.68c38.26-19.14,56.85-42.13,56.85-70.32c0-30.88-25.12-56-56-56
			c-8.83,0-16,7.17-16,16s7.17,16,16,16c13.23,0,24,10.77,24,24c0,9.49-4.06,24.14-39.15,41.68c-7.9,3.95-11.1,13.57-7.15,21.47
			C716.39,464.68,722.04,467.91,727.91,467.91z"/>
		<path d="M751.99,496.34c-22.46,11.89-69.62,19.57-120.1,19.57c-75.81,0-118.21-15.73-126.96-23.97
			c4.64-4.24,20.45-12.93,57.41-18.88c0.72-0.11,1.3-0.53,1.98-0.74c14.58,9.44,37.25,14.18,69.31,14.18
			c14.13,0,30.05-0.9,47.84-2.67c8.78-0.88,15.2-8.72,14.34-17.52c-0.88-8.78-8.66-15.22-17.52-14.34
			c-87.01,8.7-99.38-8.05-100.5-10c-1.49-2.56-0.14-6.53,1.25-9.42c14.75,2.8,34.05,4.54,59.5,4.54c11.54,0,24.34-0.35,38.54-1.12
			l2-0.1c1.15,0.06,2.38-0.02,3.62-0.24c8.32-1.49,14.26-9.25,13.28-17.65c-0.66-5.62-4.21-14.96-20.62-13.98
			c-103.74,5.63-115.34-12.69-115.41-12.88c0-0.02,0.03-0.62,0.3-1.6c23.52,3.94,45.54,5.49,64.69,5.49
			c43.62,0,73.01-7.17,74.85-7.62c8.58-2.14,13.78-10.83,11.65-19.41c-2.14-8.58-10.85-13.76-19.41-11.65
			c-0.61,0.14-61.42,14.94-136.98-0.16c-0.38-0.08-0.77-0.16-1.14-0.24c5.97-2.13,13.89-4.56,24.19-7.02
			c8.59-2.05,13.9-10.69,11.84-19.28c-2.06-8.59-10.69-13.87-19.28-11.84c-55.86,13.33-62.75,28.66-62.54,40.5
			c0.24,12.64,10.3,19.68,20.94,23.89c-2.58,10.26-0.42,18.4,2.67,24.14c2.83,5.3,7.54,11.09,16.78,16.22
			c-2.38,6.19-3.94,13.49-3.12,21.07c-35.9,7.07-73.52,20.98-73.52,48.29c0,44.21,100.58,56,160,56c57.01,0,107.5-8.7,135.06-23.3
			c7.81-4.13,10.78-13.81,6.66-21.63C769.5,495.19,759.83,492.21,751.99,496.34z"/>
		<path class="st0" d="M631.9,355.91c-5.87,0-11.52-3.25-14.32-8.85c-2.94-5.9-17.68-36.34-17.68-55.15
			c0-38.62,20.34-58.98,36.69-75.31c6.26-6.26,16.37-6.26,22.62,0c6.26,6.26,6.26,16.37,0,22.62
			c-15.26,15.26-27.31,27.31-27.31,52.69c0,8.3,8.54,29.28,14.32,40.85c3.95,7.9,0.74,17.5-7.17,21.46
			C636.75,355.37,634.31,355.91,631.9,355.91z"/>
		<g class="st1">
			<path d="M680.04,387.06c-3.65,0-7.25-1.18-10.13-3.68c-6.67-5.81-7.9-15.31-2.1-21.98l1.12-1.28c6.05-6.91,8.34-9.5-4.22-47.15
				c-14.93-44.8,35.89-80.7,38.05-82.21c7.26-5.06,17.23-3.25,22.27,4.02c5.04,7.26,3.25,17.23-4.02,22.27
				c-0.3,0.21-33.18,24.06-25.95,45.79c15.95,47.84,13.74,60.3-2.06,78.37C689.72,385,684.86,387.06,680.04,387.06z"/>
		</g>
	</g>
	<g>
		<path d="M208.67,22.27c-15.69,0.06-31.07,1.56-44.23,3.85c-38.76,6.79-45.67,20.97-45.67,47.12v40.38h92.31v16.35H75.01
			c-26.62,0-50.36,16.05-57.69,46.15c-8.41,34.5-8.77,55.77,0,91.83c6.55,26.8,22.42,46.15,49.04,46.15h36.54v-50.48
			c0-29.93,26.14-57.69,57.21-57.69h80.77c25.48,0,46.15-20.85,46.15-46.15V73.23c0-24.58-21.27-42.97-46.15-47.12
			C225.13,23.53,224.35,22.21,208.67,22.27z M156.74,58.33c9.44,0,17.31,7.75,17.31,17.31c0,9.5-7.87,17.31-17.31,17.31
			c-9.5,0-17.31-7.81-17.31-17.31C139.44,66.08,147.25,58.33,156.74,58.33z M302.9,114.1v50.48c0,29.93-26.14,57.69-57.21,57.69
			h-80.77c-25.48,0-46.15,20.85-46.15,46.15v86.54c0,24.58,21.27,43.03,46.15,47.12c15.75,2.58,16.53,3.97,32.21,3.85
			c15.69-0.06,31.07-1.56,44.23-3.85c38.76-6.73,45.67-20.97,45.67-47.12v-40.38h-92.31v-16.35h136.06
			c26.62,0,50.36-16.05,57.69-46.15c8.41-34.5,8.77-55.77,0-91.83c-6.55-26.8-22.42-46.15-49.04-46.15H302.9z M249.05,335.25
			c9.5,0,17.31,7.81,17.31,17.31c0,9.56-7.81,17.31-17.31,17.31c-9.44,0-17.31-7.75-17.31-17.31
			C231.74,343.06,239.62,335.25,249.05,335.25z"/>
	</g>
	<g>
		<g>
			<path d="M215.9,152.13v352h352v-352H215.9z M247.9,184.13h288v288h-288V184.13z M459.8,312.13c-22.8,0-37.53,14.59-37.53,33.91
				c0,20.98,12.3,31,30.84,38.91l6.41,2.75c11.71,5.17,18.69,8.18,18.69,17c0,7.44-6.83,12.78-17.47,12.78
				c-12.61,0-19.78-6.68-25.25-15.66l-20.97,12c7.44,14.9,22.94,26.31,46.81,26.31c24.32,0,42.56-12.61,42.56-35.72
				c0-21.58-12.31-31.17-34.22-40.44l-6.38-2.75c-11.09-4.86-15.81-8.06-15.81-15.66c0-6.24,4.71-11.09,12.31-11.09
				c7.46,0,12.15,3.19,16.56,11.09l20.09-12.91C487.95,317.76,476.22,312.13,459.8,312.13z M366.21,313.66v87.41
				c0,12.77-5.48,16.09-13.84,16.09c-8.82,0-12.61-6.07-16.56-13.22l-20.97,12.62c6.08,12.93,18.07,23.56,38.59,23.56
				c22.8,0,38.47-12.17,38.47-38.78v-87.69H366.21z"/>
		</g>
		<g>
			<path d="M485.69,5.7c-1.21-0.01-2.39,0.04-3.55,0.14c-4.66,0.41-8.97,1.75-12.87,4.02c-9.92,5.79-15.57,17.13-17.43,31.83
				c-1.8,14.24,0.02,31.91,4.86,51.51c-19.4,5.52-35.62,12.73-47.05,21.4c-11.8,8.95-18.76,19.55-18.76,31.1s6.96,22.15,18.76,31.1
				c11.42,8.67,27.64,15.88,47.05,21.41c-4.84,19.59-6.66,37.26-4.86,51.5c1.86,14.7,7.51,26.03,17.43,31.83
				c4.76,2.78,10.16,4.18,16.03,4.18c3.73,0,7.65-0.56,11.74-1.66c15.42-4.13,32.58-15.98,49.85-32.92
				c17.27,16.94,34.43,28.79,49.85,32.92c4.09,1.09,8.01,1.66,11.74,1.66c5.86,0,11.27-1.4,16.03-4.18
				c9.92-5.79,15.56-17.12,17.42-31.83c1.8-14.24-0.01-31.91-4.85-51.5c19.4-5.53,35.62-12.73,47.05-21.41
				c11.8-8.95,18.76-19.55,18.76-31.1s-6.96-22.15-18.76-31.1c-11.42-8.67-27.64-15.87-47.05-21.4c4.84-19.59,6.66-37.26,4.86-51.5
				c-1.86-14.7-7.51-26.04-17.43-31.84c-7.8-4.55-17.27-5.34-27.77-2.52c-15.42,4.13-32.58,15.99-49.85,32.93
				c-17.27-16.94-34.43-28.8-49.85-32.93C493.11,6.29,489.31,5.74,485.69,5.7z M485.68,9.69c3.23,0.04,6.67,0.54,10.33,1.52
				c14.7,3.94,32.02,15.67,49.48,33.08c0.78,0.78,2.05,0.78,2.83,0c17.45-17.41,34.78-29.14,49.48-33.08
				c9.76-2.61,17.96-1.84,24.72,2.11c8.53,4.98,13.71,14.92,15.48,28.88s0.03,31.79-5.09,51.81c-0.27,1.06,0.36,2.13,1.41,2.42
				c19.92,5.49,36.23,12.85,47.42,21.35s17.18,17.96,17.18,27.91s-5.98,19.42-17.18,27.91c-11.2,8.5-27.5,15.86-47.42,21.35
				c-1.05,0.29-1.68,1.37-1.41,2.42c5.12,20.02,6.86,37.86,5.09,51.82s-6.94,23.89-15.48,28.88c-4.13,2.42-8.78,3.63-14.02,3.63
				c-3.33,0-6.9-0.51-10.7-1.52v0.01c-14.7-3.94-32.02-15.68-49.48-33.09c-0.78-0.78-2.05-0.78-2.83,0
				c-17.45,17.41-34.78,29.15-49.48,33.09v-0.01c-3.8,1.02-7.37,1.52-10.7,1.52c-5.24,0-9.88-1.22-14.02-3.63
				c-8.53-4.98-13.71-14.91-15.48-28.88s-0.03-31.79,5.09-51.81c0.27-1.06-0.35-2.14-1.41-2.43c-19.92-5.49-36.23-12.85-47.42-21.35
				c-11.2-8.5-17.18-17.96-17.18-27.91s5.98-19.42,17.18-27.91c11.2-8.5,27.5-15.86,47.42-21.35c1.05-0.29,1.68-1.37,1.41-2.42
				c-5.12-20.02-6.86-37.85-5.09-51.81c1.76-13.96,6.94-23.9,15.48-28.88c3.38-1.98,7.12-3.15,11.23-3.52
				C483.55,9.71,484.6,9.67,485.68,9.69z M485.36,17.7c-3.74,0-7.13,0.83-10.04,2.52c-7.05,4.12-10.86,13.26-11.91,25.6
				c-1.05,12.34,0.66,28.13,5.3,46.27c0.27,1.05,1.32,1.69,2.38,1.45c12.59-2.83,26.36-4.97,41-6.29c0.59-0.05,1.12-0.37,1.46-0.85
				c8.59-12.38,17.52-23.65,26.51-33.51c0.72-0.79,0.7-2.01-0.06-2.77c-16.21-16.25-32.13-27.46-46.05-31.2
				C490.91,18.13,488.04,17.7,485.36,17.7z M608.44,17.7c-2.69,0-5.54,0.43-8.58,1.23c-13.93,3.73-29.84,14.95-46.05,31.2
				c-0.75,0.76-0.78,1.97-0.06,2.76c8.99,9.85,17.92,21.12,26.51,33.51c0.34,0.49,0.87,0.8,1.46,0.85c14.64,1.32,28.4,3.45,41,6.29
				c1.05,0.24,2.11-0.41,2.38-1.45c4.65-18.14,6.36-33.92,5.3-46.27s-4.86-21.48-11.91-25.6C615.57,18.53,612.17,17.7,608.44,17.7z
				 M485.36,21.7c2.26,0,4.79,0.36,7.55,1.09c12.34,3.31,27.46,13.81,42.91,29.02c-8.48,9.44-16.89,19.98-24.99,31.59
				c-13.71,1.27-26.6,3.31-38.58,5.91c-4.2-17.02-5.82-31.9-4.86-43.16c1-11.68,4.63-19.38,9.95-22.48
				C479.57,22.38,482.21,21.7,485.36,21.7z M608.44,21.7c3.15,0,5.79,0.68,8.02,1.98c0,0,0.01,0,0.01,0
				c5.32,3.11,8.95,10.81,9.95,22.49c0.96,11.27-0.66,26.14-4.86,43.16c-11.99-2.61-24.86-4.65-38.58-5.92
				c-8.1-11.62-16.51-22.16-24.99-31.59c15.45-15.22,30.58-25.72,42.91-29.02C603.66,22.06,606.17,21.7,608.44,21.7z M546.76,58.28
				c-0.52,0.03-1,0.27-1.35,0.66c-6.59,7.29-13.17,15.36-19.59,24.07c-0.65,0.89-0.46,2.14,0.43,2.8c0.37,0.27,0.82,0.41,1.28,0.38
				c6.34-0.31,12.79-0.48,19.36-0.48c6.57,0,13.02,0.18,19.36,0.49c1.1,0.06,2.04-0.79,2.1-1.89c0.02-0.46-0.11-0.92-0.39-1.29
				c-6.42-8.72-12.99-16.78-19.59-24.07C547.97,58.48,547.38,58.24,546.76,58.28z M546.9,63.44c5.09,5.73,10.16,12.03,15.16,18.64
				c-5-0.2-10.01-0.38-15.16-0.38s-10.16,0.19-15.16,0.38C536.74,75.47,541.8,69.17,546.9,63.44z M546.9,93.7
				c-9.83,0-19.31,0.38-28.39,1.05c-0.61,0.05-1.17,0.37-1.51,0.88c-5.12,7.61-10.1,15.58-14.85,23.89
				c-4.9,8.59-9.3,17.04-13.24,25.32c-0.26,0.55-0.26,1.18,0,1.73c3.94,8.28,8.34,16.73,13.24,25.32
				c4.74,8.31,9.73,16.27,14.84,23.88c0.34,0.51,0.9,0.83,1.52,0.88c9.08,0.68,18.56,1.05,28.39,1.05s19.31-0.38,28.4-1.05
				c0.61-0.05,1.17-0.37,1.51-0.88c5.12-7.61,10.11-15.57,14.85-23.88c4.9-8.59,9.3-17.04,13.24-25.32c0.26-0.55,0.26-1.18,0-1.73
				c-3.94-8.28-8.34-16.73-13.24-25.32c0,0,0-0.01,0-0.01c-4.75-8.31-9.74-16.27-14.85-23.88c-0.34-0.51-0.9-0.83-1.52-0.88
				C566.2,94.08,556.73,93.7,546.9,93.7z M503.43,96.22c-0.1,0-0.21,0-0.31,0.02c-10.56,1.26-20.45,2.96-29.62,5.01
				c-1.08,0.24-1.76,1.31-1.52,2.39c0.01,0.05,0.02,0.1,0.04,0.15c2.8,9.08,6.26,18.62,10.45,28.52c0.43,1.02,1.6,1.5,2.62,1.07
				c0.43-0.18,0.79-0.51,1.01-0.93c2.85-5.6,5.86-11.23,9.09-16.88c0,0,0.01,0,0.01,0c3.18-5.58,6.48-10.98,9.84-16.27
				c0.59-0.93,0.32-2.17-0.62-2.76C504.12,96.34,503.78,96.23,503.43,96.22z M590.48,96.22c-0.07,0-0.13,0-0.2,0.01
				c-1.1,0.09-1.92,1.05-1.83,2.16c0.03,0.33,0.13,0.64,0.31,0.91c3.36,5.29,6.66,10.68,9.84,16.26c0,0,0,0.01,0,0.01
				c3.23,5.64,6.24,11.27,9.09,16.88c0.5,0.98,1.7,1.38,2.69,0.88c0.42-0.21,0.75-0.57,0.94-1c4.19-9.91,7.65-19.45,10.45-28.52
				c0.33-1.05-0.26-2.18-1.31-2.51c-0.05-0.02-0.1-0.03-0.16-0.04c-9.17-2.04-19.07-3.75-29.62-5.01
				C590.61,96.22,590.54,96.22,590.48,96.22z M546.9,97.7c9.39,0,18.41,0.37,27.11,1c4.88,7.3,9.64,14.87,14.17,22.8
				c4.68,8.21,8.85,16.28,12.65,24.2c-3.8,7.92-7.96,15.99-12.65,24.2c-4.52,7.93-9.29,15.5-14.17,22.8c-8.7,0.63-17.72,1-27.11,1
				c-9.39,0-18.41-0.37-27.11-1c-4.88-7.3-9.65-14.87-14.17-22.8c-4.68-8.21-8.85-16.28-12.65-24.2c3.79-7.92,7.96-15.99,12.65-24.2
				c4.53-7.93,9.3-15.5,14.18-22.8C528.49,98.07,537.51,97.7,546.9,97.7z M499.38,100.91c-2.59,4.15-5.17,8.31-7.66,12.66
				c-2.51,4.39-4.79,8.75-7.06,13.1c-3.06-7.53-5.8-14.89-8.03-21.91C483.75,103.23,491.42,101.98,499.38,100.91z M594.41,100.92
				c7.97,1.06,15.62,2.32,22.74,3.84c-2.23,7.02-4.97,14.37-8.03,21.91c-2.27-4.35-4.54-8.71-7.05-13.09
				C599.59,109.22,597,105.07,594.41,100.92z M462.19,104.1c-0.16,0-0.32,0.03-0.48,0.07c-18.03,4.97-32.54,11.32-42.69,18.38
				c-10.14,7.06-16.12,14.96-16.12,23.15s5.98,16.08,16.12,23.15c10.14,7.06,24.66,13.42,42.69,18.38c1.04,0.28,2.12-0.31,2.44-1.34
				c3.85-12.54,8.91-25.77,15.13-39.35c0.24-0.53,0.24-1.14,0-1.67c-6.23-13.59-11.29-26.81-15.13-39.35
				C463.89,104.66,463.08,104.08,462.19,104.1z M631.49,104.1c-0.85,0.03-1.59,0.6-1.84,1.41c-3.85,12.54-8.91,25.77-15.13,39.35
				c-0.24,0.53-0.24,1.14,0,1.67c6.23,13.59,11.29,26.81,15.13,39.35c0.32,1.03,1.4,1.63,2.44,1.34
				c18.03-4.97,32.54-11.32,42.69-18.38s16.12-14.96,16.12-23.15s-5.98-16.08-16.12-23.15s-24.66-13.42-42.69-18.38
				C631.89,104.12,631.69,104.09,631.49,104.1z M461.07,108.62c3.74,11.9,8.44,24.32,14.25,37.09
				c-5.81,12.77-10.51,25.18-14.25,37.09c-16.83-4.8-30.51-10.78-39.76-17.22c-9.59-6.68-14.41-13.68-14.41-19.87
				s4.82-13.19,14.41-19.87C430.56,119.39,444.24,113.41,461.07,108.62z M632.73,108.62c16.83,4.8,30.51,10.78,39.76,17.22
				c9.59,6.68,14.41,13.68,14.41,19.87s-4.82,13.19-14.41,19.87c-9.25,6.44-22.93,12.42-39.76,17.22
				c-3.74-11.9-8.44-24.32-14.25-37.09C624.29,132.93,628.98,120.52,632.73,108.62z M546.9,113.7c-17.63,0-32,14.37-32,32
				s14.37,32,32,32s32-14.37,32-32S564.52,113.7,546.9,113.7z M546.9,121.7c13.3,0,24,10.7,24,24s-10.7,24-24,24s-24-10.7-24-24
				S533.6,121.7,546.9,121.7z M484.32,157.88c-0.8,0-1.53,0.48-1.84,1.22c-4.19,9.9-7.65,19.44-10.45,28.52
				c-0.33,1.05,0.26,2.18,1.31,2.51c0.05,0.02,0.1,0.03,0.16,0.04c9.17,2.04,19.06,3.75,29.62,5.01c1.1,0.13,2.09-0.65,2.22-1.75
				c0.05-0.46-0.05-0.92-0.3-1.31c-3.36-5.28-6.66-10.68-9.84-16.26c-3.22-5.65-6.23-11.28-9.09-16.88
				C485.76,158.3,485.07,157.88,484.32,157.88z M609.41,157.88c-0.73,0.02-1.39,0.44-1.72,1.09c-2.85,5.6-5.87,11.23-9.09,16.88
				c-3.18,5.58-6.49,10.97-9.84,16.26c-0.59,0.93-0.32,2.17,0.61,2.76c0.39,0.25,0.85,0.35,1.31,0.3
				c10.56-1.26,20.45-2.96,29.62-5.01c1.08-0.24,1.76-1.31,1.52-2.39c-0.01-0.05-0.03-0.11-0.04-0.16
				c-2.8-9.07-6.26-18.61-10.45-28.52C611,158.34,610.24,157.85,609.41,157.88z M484.67,164.74c2.27,4.35,4.55,8.71,7.05,13.09
				c2.49,4.35,5.07,8.5,7.66,12.65c-7.96-1.06-15.62-2.32-22.73-3.84C478.87,179.62,481.61,172.27,484.67,164.74z M609.12,164.74
				c3.06,7.53,5.8,14.88,8.03,21.9c-7.12,1.53-14.77,2.78-22.73,3.84c2.58-4.15,5.17-8.3,7.66-12.65
				C604.58,173.45,606.85,169.09,609.12,164.74z M623.18,197.8c-0.16,0-0.32,0.02-0.48,0.05c-12.59,2.83-26.36,4.97-40.99,6.29
				c-0.59,0.05-1.12,0.37-1.46,0.85c-8.59,12.39-17.52,23.65-26.51,33.51c-0.72,0.79-0.7,2.01,0.06,2.77
				c16.21,16.25,32.13,27.46,46.05,31.2c7.26,1.94,13.62,1.63,18.62-1.29c7.05-4.12,10.86-13.26,11.91-25.6
				c1.05-12.34-0.66-28.12-5.31-46.27C624.86,198.44,624.08,197.82,623.18,197.8z M470.69,197.81c-0.93-0.02-1.75,0.6-1.98,1.5
				c-4.64,18.14-6.36,33.92-5.3,46.27c1.05,12.34,4.86,21.48,11.91,25.6c0,0,0.01,0.01,0.01,0.01c4.99,2.91,11.35,3.22,18.61,1.28
				c13.93-3.73,29.85-14.95,46.05-31.2c0.75-0.76,0.78-1.97,0.06-2.76c-8.99-9.86-17.92-21.13-26.51-33.52
				c-0.34-0.49-0.87-0.8-1.46-0.85c-14.63-1.32-28.41-3.45-41-6.29C470.96,197.83,470.83,197.81,470.69,197.81z M621.54,202.07
				c4.2,17.03,5.83,31.91,4.87,43.17c-1,11.68-4.63,19.38-9.95,22.48c-3.83,2.24-8.96,2.65-15.57,0.88
				c-12.34-3.31-27.46-13.81-42.91-29.02c8.48-9.44,16.89-19.98,24.99-31.59C596.68,206.72,609.56,204.68,621.54,202.07z
				 M472.25,202.08c11.98,2.61,24.86,4.64,38.57,5.91c8.1,11.62,16.51,22.16,24.99,31.6c-15.45,15.21-30.57,25.71-42.91,29.02
				c-6.6,1.76-11.74,1.35-15.57-0.88c-5.32-3.11-8.95-10.8-9.95-22.48C466.43,233.98,468.05,219.1,472.25,202.08z M527.34,205.22
				c-1.1,0.06-1.95,1-1.89,2.1c0.02,0.39,0.15,0.76,0.38,1.08c6.42,8.72,12.99,16.78,19.59,24.07c0.74,0.82,2.01,0.88,2.83,0.14
				c0.05-0.05,0.1-0.09,0.14-0.14c6.59-7.29,13.17-15.36,19.59-24.07c0.65-0.89,0.46-2.14-0.43-2.8c-0.37-0.27-0.82-0.41-1.28-0.38
				c-6.34,0.31-12.79,0.48-19.36,0.48c-6.57,0-13.02-0.18-19.36-0.48C527.47,205.21,527.4,205.21,527.34,205.22z M531.73,209.32
				c5,0.19,10.01,0.38,15.16,0.38s10.16-0.19,15.16-0.38c-5.01,6.61-10.07,12.91-15.16,18.64
				C541.8,222.23,536.74,215.94,531.73,209.32z"/>
		</g>
		<g>
			<path class="st2" d="M568,197.12v-4.03c-6.83,0.39-13.85,0.62-21.1,0.62c-4.21,0-8.33-0.08-12.4-0.22v4.01
				c4.07,0.13,8.19,0.21,12.4,0.21C554.13,197.7,561.17,197.5,568,197.12z"/>
			<path class="st2" d="M465.22,182.5c3.25-10.14,7.28-20.69,12.06-31.5h-4.31c-4.7,10.81-8.6,21.34-11.8,31.5H465.22z"/>
			<path class="st2" d="M495.56,151h-4.49c3.38,6.86,7.05,13.83,11.08,20.89c2.06,3.61,4.17,7.14,6.31,10.61h4.72
				c-2.58-4.11-5.11-8.29-7.56-12.6C501.97,163.52,498.65,157.21,495.56,151z"/>
			<path class="st2" d="M568,169.71v-12.53c-4.06,7.47-11.96,12.52-21.1,12.52c-11.48,0-21.01-7.97-23.41-18.7h-8.14
				c2.54,15.12,15.73,26.7,31.55,26.7C554.97,177.7,562.36,174.68,568,169.71z"/>
			<path class="st2" d="M419.02,168.85c7.16,4.98,16.5,9.61,27.71,13.65h13.36c-16.38-4.75-29.71-10.62-38.78-16.93
				c-6.94-4.83-11.37-9.83-13.3-14.57h-4.27C405.71,157.29,411.09,163.32,419.02,168.85z"/>
			<path class="st2" d="M478.01,182.5c1.95-5.75,4.19-11.7,6.66-17.76c2.27,4.35,4.55,8.71,7.05,13.09c0.9,1.58,1.82,3.13,2.75,4.67
				h4.63c-1.32-2.19-2.62-4.4-3.91-6.65c-3.22-5.65-6.23-11.28-9.09-16.88c-0.34-0.67-1.03-1.09-1.78-1.09
				c-0.8,0-1.53,0.48-1.84,1.22c-3.41,8.06-6.33,15.88-8.81,23.4H478.01z"/>
			<path class="st2" d="M409.66,176.8c2.6,1.98,5.47,3.87,8.56,5.7h8.24c-5.43-2.78-10.25-5.76-14.37-8.88
				c-9.19-6.98-14.86-14.6-16.6-22.62h-4.07C393.19,160.5,399.69,169.24,409.66,176.8z"/>
			<path class="st2" d="M568,264.37c-6.45-4.86-13.06-10.65-19.69-17.26c-0.78-0.78-2.05-0.78-2.83,0
				c-3.68,3.67-7.34,7.06-10.98,10.21v5.09c4.11-3.44,8.25-7.21,12.4-11.28c7.09,6.95,14.16,13.03,21.1,18.09V264.37z"/>
			<path class="st2" d="M540.05,238.51c-1.85-2.04-3.71-4.14-5.55-6.3v5.89c0.44,0.49,0.87,1,1.31,1.48
				c-0.44,0.43-0.87,0.84-1.31,1.27v5.72c1.83-1.71,3.66-3.47,5.49-5.31C540.74,240.52,540.77,239.3,540.05,238.51z"/>
			<path class="st2" d="M548.24,232.61c0.05-0.05,0.1-0.09,0.14-0.14c6.59-7.29,13.17-15.36,19.59-24.07
				c0.01-0.02,0.02-0.04,0.03-0.05v-2.25c-0.12-0.18-0.28-0.35-0.46-0.49c-0.37-0.27-0.82-0.41-1.28-0.38
				c-6.34,0.31-12.79,0.48-19.36,0.48c-4.18,0-8.31-0.08-12.4-0.21v3.93c4.09,0.15,8.19,0.28,12.4,0.28
				c5.15,0,10.16-0.19,15.16-0.38c-5.01,6.61-10.07,12.91-15.16,18.64c-4.16-4.68-8.29-9.74-12.4-15.04v6.74
				c3.62,4.49,7.26,8.77,10.91,12.81C546.15,233.29,547.42,233.35,548.24,232.61z"/>
			<path class="st2" d="M568,254.24v-5.42c-3.31-2.84-6.66-5.92-10.02-9.23c3.36-3.74,6.7-7.65,10.02-11.73v-6.25
				c-4.71,6-9.48,11.66-14.26,16.91c-0.72,0.79-0.7,2.01,0.06,2.77C558.58,246.06,563.32,250.39,568,254.24z"/>
		</g>
	</g>
	<g>
		<path class="st3" d="M217.66,150.93v56.57h24.92c2.41,0,4.77-0.19,7.08-0.55v-24.02h33.67c3.44-6.46,5.4-13.81,5.4-21.59v-10.41
			H217.66z"/>
		<path class="st3" d="M249.66,223.78c-0.75,0.03-1.51,0.06-2.27,0.06h-29.73v75.96h32V223.78z"/>
		<path class="st3" d="M304.6,166.15c0,5.73-0.97,11.38-2.74,16.78h92.65c-1.05-6.55-2.49-13.5-4.34-21.11
			c-0.93-3.79-2.05-7.43-3.35-10.89H304.6V166.15z"/>
		<path class="st3" d="M243.06,403.65c2.31-0.4,4.5-0.83,6.6-1.29v-30.98c-8.94-0.58-16.21-8.07-16.21-17.25
			c0-9.12,7.27-16.67,16.21-17.25v-20.73h-32v90.59C226.64,406.08,235.25,405.01,243.06,403.65z"/>
	</g>
	<g>
		<path class="st2" d="M500.46,492.39c4.64-4.24,20.45-12.93,57.41-18.88c0.72-0.11,1.3-0.53,1.98-0.74
			c2.19,1.42,4.59,2.72,7.15,3.93v-78.63c-9.51-3.28-11.49-6.42-11.52-6.5c0-0.02,0.03-0.62,0.3-1.6c3.78,0.63,7.52,1.2,11.22,1.71
			v-32.19c-5.38-0.81-10.86-1.75-16.42-2.86c-0.38-0.08-0.77-0.16-1.14-0.24c4.61-1.64,10.41-3.47,17.55-5.35V318.1
			c-0.27,0.05-0.53,0.08-0.8,0.15c-12.81,3.06-23.04,6.22-31.2,9.42v88.95c2.41,2.18,5.37,4.34,9.06,6.39
			c-2.38,6.19-3.94,13.49-3.12,21.07c-1.98,0.39-3.96,0.8-5.94,1.23V471h-58.26c-5.84,6.01-9.33,13.06-9.33,21.36
			c0,3.78,0.75,7.32,2.14,10.64h53.09C510.99,499.21,503.58,495.33,500.46,492.39z"/>
	</g>
</g>
</svg>
